<?xml version="1.0" standalone="no"?><!DOCTYPE svg PUBLIC "-//W3C//DTD SVG 1.1//EN" "http://www.w3.org/Graphics/SVG/1.1/DTD/svg11.dtd"><svg t="1586962739519" class="icon" viewBox="0 0 1282 1024" version="1.1" xmlns="http://www.w3.org/2000/svg" p-id="6760" xmlns:xlink="http://www.w3.org/1999/xlink" width="250.390625" height="200"><defs><style type="text/css"></style></defs><path d="M1024.476383 606.703438c0-23.610729-8.024075-43.916552-24.563495-61.870233L516.250229 62.123312c-17.000916-17.015803-40.611645-31.649691-68.956429-43.931439-29.282663-12.281747-55.26042-17.953682-78.900924-17.953682H86.910111c-23.610729 0-43.916552 8.93218-60.932354 25.977757S0 63.537574 0 87.148303V367.708076c0 23.625616 5.671934 50.615687 17.953682 78.900923 12.281747 29.282663 25.977757 51.955514 43.931438 68.95643L545.547779 999.213201c17.000916 17.000916 37.306738 24.563495 60.917468 24.563495s43.931439-8.038962 61.88512-24.563495l331.562521-331.577408c15.586654-17.000916 24.563495-37.306738 24.563495-60.932355z m-747.221516-328.257614c-17.000916 17.000916-37.306738 25.024991-60.917468 25.024991s-43.931439-8.024075-60.932354-25.024991-25.039878-37.321625-25.039878-60.932354 8.038962-43.931439 25.039878-60.932355 37.306738-25.024991 60.932354-25.024991 43.916552 8.024075 60.917468 25.024991 24.563495 37.321625 24.563495 60.932355c1.414262 24.087112-7.547692 43.931439-24.563495 60.932354z" fill="#003865" p-id="6761"></path><path d="M1257.710489 544.118631L774.122265 61.88512c-17.015803-17.000916-40.626532-31.649691-68.971316-43.931438C675.868285 5.671934 649.890528 0 626.250025 0H474.120113c23.610729 0 50.541252 5.671934 78.900924 17.953682 29.282663 12.281747 51.955514 25.977757 68.956429 43.931438L1105.610351 544.118631c17.000916 17.953682 25.039878 38.259504 25.039878 61.88512s-8.038962 43.916552-25.039878 60.932354L788.681718 984.802617a244.146253 244.146253 0 0 0 35.892477 30.235429c9.929607 6.609813 23.625616 8.93218 39.688653 8.93218 23.610729 0 43.916552-8.024075 61.870233-25.024991l331.577408-332.485513c17.000916-17.000916 24.548608-37.321625 24.548608-60.932354s-8.024075-42.978673-24.548608-61.408737z" fill="#0078D7" p-id="6762"></path></svg>