<?xml version="1.0" standalone="no"?><!DOCTYPE svg PUBLIC "-//W3C//DTD SVG 1.1//EN" "http://www.w3.org/Graphics/SVG/1.1/DTD/svg11.dtd"><svg t="1586965317862" class="icon" viewBox="0 0 1024 1024" version="1.1" xmlns="http://www.w3.org/2000/svg" p-id="6316" xmlns:xlink="http://www.w3.org/1999/xlink" width="200" height="200"><defs><style type="text/css"></style></defs><path d="M97.514532 926.485478h877.630702a48.757261 48.757261 0 1 1 0 97.514522h-926.387963a48.757261 48.757261 0 0 1-48.757262-48.757261v-926.387963a48.757261 48.757261 0 0 1 97.514523 0v877.630702z m147.734501-366.459576a48.757261 48.757261 0 0 1 48.757261 48.757262v223.893343a48.757261 48.757261 0 1 1-97.514522 0v-223.893343a48.757261 48.757261 0 0 1 48.757261-48.757262z m243.493763-138.32435a48.757261 48.757261 0 0 1 48.757261 48.757261v356.220551a48.757261 48.757261 0 1 1-97.514523 0V470.458813a48.757261 48.757261 0 0 1 48.757262-48.757261z m245.49281-139.982097a48.757261 48.757261 0 0 1 48.757261 48.757262V826.92315a48.757261 48.757261 0 0 1-97.514522 0V330.476717a48.757261 48.757261 0 0 1 48.757261-48.757262zM674.898019 126.768879l-61.434149-65.87106L839.843834 36.567946l-39.980955 224.13713-62.701837-67.187506-229.256643 187.959242L388.887925 269.140082 209.656233 417.069612 151.732606 346.859156 392.88602 147.734501l119.260261 112.483002L674.898019 126.768879z" p-id="6317"></path></svg>